External Loads File
version=1
nRows=31
nColumns=13
Range=5.000000e-03-10 seconds
endheader
time 	forceRightX 	forceRightY 	forceRightZ 	pointRightX 	pointRightY 	pointRightZ 	forceLeftX 	forceLeftY 	forceLeftZ 	pointLeftX 	pointLeftY 	pointLeftZ 		
2.505000 -66.180112 58.527487 -0.000000 0.167355 0.502050 -0.105346 50.344035 540.499114 -0.000000 0.189963 0.141127 -0.345089
2.510000 -67.719682 70.464622 -0.000000 0.173277 0.502804 -0.105366 56.915740 496.790693 -0.000000 0.183698 0.140671 -0.344920
2.515000 -68.771590 82.366504 -0.000000 0.179224 0.503198 -0.105380 62.293426 451.401517 -0.000000 0.177478 0.140542 -0.344726
2.520000 -69.497740 94.268659 -0.000000 0.185110 0.503223 -0.105435 66.222754 404.985372 -0.000000 0.171276 0.140717 -0.344486
2.525000 -70.110598 106.335431 -0.000000 0.190816 0.502799 -0.105501 68.414125 358.391541 -0.000000 0.165119 0.141318 -0.344337
2.530000 -70.762172 118.859418 -0.000000 0.196462 0.502029 -0.105533 68.946360 312.546409 -0.000000 0.159040 0.142289 -0.344088
2.535000 -71.692299 132.123193 -0.000000 0.201930 0.501019 -0.105630 67.761143 268.474062 -0.000000 0.153051 0.143501 -0.343836
2.540000 -73.032360 146.498783 -0.000000 0.207317 0.499476 -0.105699 65.183328 227.086932 -0.000000 0.147091 0.144941 -0.343722
2.545000 -74.945239 162.307375 -0.000000 0.212580 0.497594 -0.105718 61.457598 189.173937 -0.000000 0.141174 0.146735 -0.343438
2.550000 -77.615629 179.782487 -0.000000 0.217659 0.495133 -0.105760 56.886005 155.301185 -0.000000 0.135373 0.148818 -0.343294
2.555000 -81.103856 199.093013 -0.000000 0.222754 0.492336 -0.105714 51.951045 125.729283 -0.000000 0.129668 0.151125 -0.343181
2.560000 -85.552896 220.167667 -0.000000 0.227681 0.489163 -0.105692 47.022927 100.504383 -0.000000 0.123947 0.153648 -0.343018
2.565000 -90.997868 242.712710 -0.000000 0.232547 0.485674 -0.105741 42.464832 79.446645 -0.000000 0.118309 0.156545 -0.342990
2.570000 -97.246925 266.298278 -0.000000 0.237500 0.481775 -0.105773 38.590777 62.202109 -0.000000 0.112675 0.159710 -0.342958
2.575000 -104.344174 290.286708 -0.000000 0.242386 0.477455 -0.105786 35.521343 48.376045 -0.000000 0.107106 0.163197 -0.342908
2.580000 -112.109376 314.085218 -0.000000 0.247358 0.472757 -0.105760 33.344163 37.516807 -0.000000 0.101623 0.166931 -0.342917
2.585000 -120.492194 337.081689 -0.000000 0.252230 0.467772 -0.105718 32.056063 29.227991 -0.000000 0.096174 0.171019 -0.342897
2.590000 -129.402005 358.755253 -0.000000 0.257127 0.462413 -0.105604 31.619420 23.165526 -0.000000 0.090764 0.174986 -0.342711
2.595000 -138.657371 378.732655 -0.000000 0.261851 0.456693 -0.105605 31.958485 19.031942 -0.000000 0.085630 0.179716 -0.342693
2.600000 -147.907520 396.856981 -0.000000 0.266642 0.450817 -0.105457 32.980520 16.572138 -0.000000 0.080541 0.184800 -0.342547
2.605000 -157.492100 412.883616 -0.000000 0.271227 0.444825 -0.105338 34.585596 15.623147 -0.000000 0.075699 0.190268 -0.342460
2.610000 -166.502526 427.187404 -0.000000 0.276043 0.438445 -0.105455 36.764665 15.904779 -0.000000 0.070963 0.195968 -0.342364
2.615000 -175.617318 439.640927 -0.000000 0.280496 0.431919 -0.105447 39.469509 17.236463 -0.000000 0.066445 0.202041 -0.342245
2.620000 -184.215392 450.684710 -0.000000 0.284982 0.425136 -0.105384 42.697335 19.308862 -0.000000 0.062036 0.208245 -0.342045
2.625000 -192.635472 460.428754 -0.000000 0.289161 0.418221 -0.105254 46.383079 21.908043 -0.000000 0.057961 0.214792 -0.341913
2.630000 -200.105121 469.485656 -0.000000 0.293175 0.411049 -0.105283 50.488183 24.746614 -0.000000 0.053941 0.221641 -0.341742
2.635000 -207.097125 477.984877 -0.000000 0.297047 0.403769 -0.105066 54.912669 27.725508 -0.000000 0.050246 0.228664 -0.341630
2.640000 -213.183963 486.457311 -0.000000 0.300512 0.396068 -0.105082 59.622025 30.735910 -0.000000 0.046801 0.235893 -0.341453
2.645000 -219.279883 494.844521 -0.000000 0.304073 0.388847 -0.105196 64.528211 33.904092 -0.000000 0.043679 0.243263 -0.341392
2.650000 -223.889268 504.119054 -0.000000 0.307163 0.380812 -0.105141 69.724869 37.080279 -0.000000 0.040825 0.250806 -0.341269
2.655000 -228.171353 514.041896 -0.000000 0.309968 0.372885 -0.105018 75.134591 40.437121 -0.000000 0.038304 0.258545 -0.341281
